<svg width="118" height="105" viewBox="0 0 118 105" fill="none" xmlns="http://www.w3.org/2000/svg">
<path d="M29.4883 28.3093C30.5979 27.4297 32.0224 28.9996 33.7541 29.9986C34.3652 30.3511 35.4346 31.0642 36.5628 31.8395C37.6182 31.3801 38.7621 31.1153 39.9741 31.1153C41.2877 31.1153 42.5241 31.4262 43.6553 31.959C45.1865 30.9699 46.6233 30.0189 47.0943 29.6369C48.2427 28.7054 49.1482 27.78 50.4652 28.3004C51.7822 28.8207 51.134 30.8384 51.134 32.8365C51.134 34.8332 50.4661 41.4564 50.4652 41.4652L50.4431 41.4524C50.4487 41.5035 50.4538 41.5544 50.4584 41.6051C50.4584 47.3985 45.7645 52.095 39.9741 52.095C34.1838 52.095 29.4898 47.3985 29.4898 41.6051C29.4947 41.5583 29.5 41.5113 29.5056 41.4641L29.4883 41.4741C29.4883 41.4741 29.1944 33.3542 28.9612 31.8946C28.7281 30.435 28.3788 29.1888 29.4883 28.3093Z" fill="#FE3434" fill-opacity="0.5"/>
<path d="M65.2112 66.5661L72.9432 57.4518L80.0125 63.449L72.2806 72.5633L65.2112 66.5661Z" fill="#D9D9D9"/>
<path d="M40.0063 0C62.1011 0 80.0125 17.9114 80.0125 40.0063C80.0125 62.1011 62.1011 80.0125 40.0063 80.0125C17.9114 80.0125 0 62.1011 0 40.0063C0 17.9114 17.9114 0 40.0063 0ZM40.0063 8.54892C23.1493 8.54892 9.48395 22.2142 9.48395 39.0712C9.48395 55.9282 23.1493 69.5935 40.0063 69.5935C56.8633 69.5935 70.5286 55.9282 70.5286 39.0712C70.5286 22.2142 56.8633 8.54892 40.0063 8.54892Z" fill="#812D2D"/>
<path d="M84.7725 60.7289L117.948 87.3592L104.554 104.046L71.3783 77.4152L84.7725 60.7289Z" fill="#D9D9D9"/>
</svg>
