<svg width="137" height="120" viewBox="0 0 137 120" fill="none" xmlns="http://www.w3.org/2000/svg">
<path d="M34.0058 32.6461C35.2853 31.6318 36.9281 33.4421 38.9251 34.5942C39.6298 35.0007 40.863 35.8231 42.1641 36.7171C43.3811 36.1873 44.7002 35.882 46.0979 35.882C47.6128 35.882 49.0385 36.2406 50.343 36.8549C52.1088 35.7143 53.7657 34.6177 54.3088 34.1771C55.6332 33.1029 56.6774 32.0357 58.1962 32.6358C59.715 33.2359 58.9674 35.5627 58.9674 37.8669C58.9674 40.1695 58.1972 47.8073 58.1962 47.8174L58.1706 47.8027C58.1771 47.8616 58.183 47.9203 58.1884 47.9788C58.1884 54.6597 52.7753 60.0756 46.0979 60.0756C39.4206 60.0756 34.0075 54.6597 34.0075 47.9788C34.0131 47.9248 34.0192 47.8706 34.0257 47.8162L34.0058 47.8277C34.0058 47.8277 33.6668 38.4638 33.3979 36.7807C33.1291 35.0975 32.7263 33.6603 34.0058 32.6461Z" fill="#FE3434" fill-opacity="0.5"/>
<path d="M75.2012 76.7636L84.1176 66.2531L92.27 73.169L83.3536 83.6795L75.2012 76.7636Z" fill="#D9D9D9"/>
<path d="M46.135 0C71.6146 0 92.27 20.6553 92.27 46.135C92.27 71.6146 71.6146 92.27 46.135 92.27C20.6553 92.27 0 71.6146 0 46.135C0 20.6553 20.6553 0 46.135 0ZM46.135 9.85856C26.6956 9.85856 10.9368 25.6173 10.9368 45.0567C10.9368 64.4961 26.6956 80.2548 46.135 80.2548C65.5744 80.2548 81.3331 64.4961 81.3331 45.0567C81.3331 25.6173 65.5744 9.85856 46.135 9.85856Z" fill="#812D2D"/>
<path d="M97.7592 70.0322L136.017 100.742L120.571 119.985L82.3131 89.2747L97.7592 70.0322Z" fill="#D9D9D9"/>
</svg>
