<svg width="85" height="75" viewBox="0 0 85 75" fill="none" xmlns="http://www.w3.org/2000/svg">
<path d="M21.2509 20.4064C22.0505 19.7724 23.0771 20.904 24.3251 21.6241C24.7654 21.8782 25.5361 22.3923 26.3492 22.9511C27.1097 22.6199 27.9341 22.4291 28.8075 22.4291C29.7542 22.4291 30.6451 22.6532 31.4604 23.0372C32.5638 22.3243 33.5993 21.6388 33.9387 21.3634C34.7663 20.6919 35.4188 20.0249 36.368 20.4C37.3171 20.7751 36.8499 22.2295 36.8499 23.6698C36.8499 25.1091 36.3686 29.8834 36.368 29.8897L36.352 29.8805C36.3561 29.9173 36.3598 29.954 36.3631 29.9906C36.3631 34.1666 32.9804 37.552 28.8075 37.552C24.6347 37.552 21.252 34.1666 21.252 29.9906C21.2555 29.9568 21.2593 29.9229 21.2634 29.8889L21.2509 29.8961C21.2509 29.8961 21.0391 24.0429 20.871 22.9908C20.703 21.9387 20.4513 21.0404 21.2509 20.4064Z" fill="#FE3434" fill-opacity="0.5"/>
<path d="M46.9948 47.9834L52.5668 41.4135L57.6614 45.7364L52.0893 52.3064L46.9948 47.9834Z" fill="#D9D9D9"/>
<path d="M28.8307 0C44.7534 0 57.6614 12.9112 57.6614 28.838C57.6614 44.7648 44.7534 57.6761 28.8307 57.6761C12.9079 57.6761 0 44.7648 0 28.838C0 12.9112 12.9079 0 28.8307 0ZM28.8307 6.16238C16.6826 6.16238 6.83465 16.0129 6.83465 28.164C6.83465 40.3152 16.6826 50.1657 28.8307 50.1657C40.9788 50.1657 50.8267 40.3152 50.8267 28.164C50.8267 16.0129 40.9788 6.16238 28.8307 6.16238Z" fill="#812D2D"/>
<path d="M61.0917 43.7757L85 62.9719L75.3474 75L51.4391 55.8038L61.0917 43.7757Z" fill="#D9D9D9"/>
</svg>
